<mxfile host="Electron" agent="Mozilla/5.0 (Macintosh; Intel Mac OS X 10_15_7) AppleWebKit/537.36 (KHTML, like Gecko) draw.io/26.1.1 Chrome/134.0.6998.205 Electron/35.2.1 Safari/537.36" version="26.1.1" pages="4">
  <diagram name="01-pill" id="8c2u56xgzhLP8R_SzQgs">
    <mxGraphModel dx="794" dy="498" grid="1" gridSize="10" guides="1" tooltips="1" connect="1" arrows="1" fold="1" page="1" pageScale="1" pageWidth="850" pageHeight="1100" background="#ffffff" math="0" shadow="0">
      <root>
        <mxCell id="0" />
        <mxCell id="1" parent="0" />
        <mxCell id="WEQdJV-AUOeDAUo7Pmyu-7" value="" style="group" parent="1" vertex="1" connectable="0">
          <mxGeometry x="90" y="80" width="240" height="400" as="geometry" />
        </mxCell>
        <mxCell id="WEQdJV-AUOeDAUo7Pmyu-1" value="" style="rounded=0;whiteSpace=wrap;html=1;" parent="WEQdJV-AUOeDAUo7Pmyu-7" vertex="1">
          <mxGeometry width="240" height="400" as="geometry" />
        </mxCell>
        <mxCell id="WEQdJV-AUOeDAUo7Pmyu-2" value="BIOS / UEFI" style="rounded=0;whiteSpace=wrap;html=1;" parent="WEQdJV-AUOeDAUo7Pmyu-7" vertex="1">
          <mxGeometry width="240" height="80" as="geometry" />
        </mxCell>
        <mxCell id="WEQdJV-AUOeDAUo7Pmyu-3" value="Bootloader&lt;div&gt;(e.g. GRUB, U-Boot, systemd-boot, ...)&lt;/div&gt;" style="rounded=0;whiteSpace=wrap;html=1;" parent="WEQdJV-AUOeDAUo7Pmyu-7" vertex="1">
          <mxGeometry y="80" width="240" height="80" as="geometry" />
        </mxCell>
        <mxCell id="WEQdJV-AUOeDAUo7Pmyu-4" value="Kernel Linux" style="rounded=0;whiteSpace=wrap;html=1;" parent="WEQdJV-AUOeDAUo7Pmyu-7" vertex="1">
          <mxGeometry y="160" width="240" height="80" as="geometry" />
        </mxCell>
        <mxCell id="WEQdJV-AUOeDAUo7Pmyu-5" value="initramfs / initrd" style="rounded=0;whiteSpace=wrap;html=1;" parent="WEQdJV-AUOeDAUo7Pmyu-7" vertex="1">
          <mxGeometry y="240" width="240" height="80" as="geometry" />
        </mxCell>
        <mxCell id="WEQdJV-AUOeDAUo7Pmyu-6" value="root file system" style="rounded=0;whiteSpace=wrap;html=1;" parent="WEQdJV-AUOeDAUo7Pmyu-7" vertex="1">
          <mxGeometry y="320" width="240" height="80" as="geometry" />
        </mxCell>
        <mxCell id="WEQdJV-AUOeDAUo7Pmyu-8" value="" style="endArrow=classic;html=1;rounded=0;" parent="1" edge="1">
          <mxGeometry width="50" height="50" relative="1" as="geometry">
            <mxPoint x="60" y="200" as="sourcePoint" />
            <mxPoint x="60" y="350" as="targetPoint" />
            <Array as="points">
              <mxPoint x="60" y="270" />
            </Array>
          </mxGeometry>
        </mxCell>
        <mxCell id="WEQdJV-AUOeDAUo7Pmyu-9" value="Time" style="text;html=1;align=center;verticalAlign=middle;resizable=0;points=[];autosize=1;strokeColor=none;fillColor=none;rotation=90;" parent="1" vertex="1">
          <mxGeometry x="20" y="250" width="50" height="30" as="geometry" />
        </mxCell>
        <mxCell id="WEQdJV-AUOeDAUo7Pmyu-10" value="TPM" style="shape=cylinder3;whiteSpace=wrap;html=1;boundedLbl=1;backgroundOutline=1;size=15;fillColor=#dae8fc;strokeColor=#6c8ebf;" parent="1" vertex="1">
          <mxGeometry x="650" y="237.5" width="90" height="85" as="geometry" />
        </mxCell>
        <mxCell id="WEQdJV-AUOeDAUo7Pmyu-11" style="rounded=0;orthogonalLoop=1;jettySize=auto;html=1;exitX=1;exitY=0.5;exitDx=0;exitDy=0;entryX=0;entryY=0.5;entryDx=0;entryDy=0;entryPerimeter=0;dashed=1;dashPattern=1 1;" parent="1" source="WEQdJV-AUOeDAUo7Pmyu-2" target="WEQdJV-AUOeDAUo7Pmyu-10" edge="1">
          <mxGeometry relative="1" as="geometry" />
        </mxCell>
        <mxCell id="WEQdJV-AUOeDAUo7Pmyu-22" value="mesure" style="edgeLabel;html=1;align=center;verticalAlign=middle;resizable=0;points=[];" parent="WEQdJV-AUOeDAUo7Pmyu-11" vertex="1" connectable="0">
          <mxGeometry x="0.08" y="-1" relative="1" as="geometry">
            <mxPoint y="-7" as="offset" />
          </mxGeometry>
        </mxCell>
        <mxCell id="WEQdJV-AUOeDAUo7Pmyu-12" style="rounded=0;orthogonalLoop=1;jettySize=auto;html=1;exitX=1;exitY=0.5;exitDx=0;exitDy=0;dashed=1;dashPattern=1 1;" parent="1" source="WEQdJV-AUOeDAUo7Pmyu-3" edge="1">
          <mxGeometry relative="1" as="geometry">
            <mxPoint x="650" y="280" as="targetPoint" />
          </mxGeometry>
        </mxCell>
        <mxCell id="WEQdJV-AUOeDAUo7Pmyu-21" value="mesure" style="edgeLabel;html=1;align=center;verticalAlign=middle;resizable=0;points=[];" parent="WEQdJV-AUOeDAUo7Pmyu-12" vertex="1" connectable="0">
          <mxGeometry x="-0.0206" y="-1" relative="1" as="geometry">
            <mxPoint as="offset" />
          </mxGeometry>
        </mxCell>
        <mxCell id="WEQdJV-AUOeDAUo7Pmyu-13" style="rounded=0;orthogonalLoop=1;jettySize=auto;html=1;entryX=0;entryY=0.5;entryDx=0;entryDy=0;entryPerimeter=0;dashed=1;dashPattern=1 1;" parent="1" source="WEQdJV-AUOeDAUo7Pmyu-4" target="WEQdJV-AUOeDAUo7Pmyu-10" edge="1">
          <mxGeometry relative="1" as="geometry" />
        </mxCell>
        <mxCell id="WEQdJV-AUOeDAUo7Pmyu-20" value="mesure" style="edgeLabel;html=1;align=center;verticalAlign=middle;resizable=0;points=[];" parent="WEQdJV-AUOeDAUo7Pmyu-13" vertex="1" connectable="0">
          <mxGeometry x="-0.2031" y="-2" relative="1" as="geometry">
            <mxPoint as="offset" />
          </mxGeometry>
        </mxCell>
        <mxCell id="WEQdJV-AUOeDAUo7Pmyu-14" style="rounded=0;orthogonalLoop=1;jettySize=auto;html=1;entryX=0;entryY=0.5;entryDx=0;entryDy=0;entryPerimeter=0;dashed=1;dashPattern=1 1;" parent="1" source="WEQdJV-AUOeDAUo7Pmyu-5" target="WEQdJV-AUOeDAUo7Pmyu-10" edge="1">
          <mxGeometry relative="1" as="geometry" />
        </mxCell>
        <mxCell id="WEQdJV-AUOeDAUo7Pmyu-19" value="mesure" style="edgeLabel;html=1;align=center;verticalAlign=middle;resizable=0;points=[];" parent="WEQdJV-AUOeDAUo7Pmyu-14" vertex="1" connectable="0">
          <mxGeometry x="-0.1272" y="1" relative="1" as="geometry">
            <mxPoint as="offset" />
          </mxGeometry>
        </mxCell>
        <mxCell id="WEQdJV-AUOeDAUo7Pmyu-15" style="rounded=0;orthogonalLoop=1;jettySize=auto;html=1;entryX=0;entryY=0.5;entryDx=0;entryDy=0;entryPerimeter=0;dashed=1;dashPattern=1 1;" parent="1" target="WEQdJV-AUOeDAUo7Pmyu-10" edge="1">
          <mxGeometry relative="1" as="geometry">
            <mxPoint x="330" y="440" as="sourcePoint" />
          </mxGeometry>
        </mxCell>
        <mxCell id="WEQdJV-AUOeDAUo7Pmyu-18" value="mesure" style="edgeLabel;html=1;align=center;verticalAlign=middle;resizable=0;points=[];" parent="WEQdJV-AUOeDAUo7Pmyu-15" vertex="1" connectable="0">
          <mxGeometry x="-0.1025" relative="1" as="geometry">
            <mxPoint x="26" y="-8" as="offset" />
          </mxGeometry>
        </mxCell>
        <mxCell id="WEQdJV-AUOeDAUo7Pmyu-31" style="edgeStyle=orthogonalEdgeStyle;rounded=0;orthogonalLoop=1;jettySize=auto;html=1;entryX=-0.009;entryY=0.379;entryDx=0;entryDy=0;entryPerimeter=0;" parent="1" source="WEQdJV-AUOeDAUo7Pmyu-24" target="WEQdJV-AUOeDAUo7Pmyu-28" edge="1">
          <mxGeometry relative="1" as="geometry">
            <mxPoint x="281" y="610" as="targetPoint" />
          </mxGeometry>
        </mxCell>
        <mxCell id="WEQdJV-AUOeDAUo7Pmyu-32" value="&lt;b&gt;&lt;i&gt;seal&lt;/i&gt;&lt;/b&gt; COMMAND" style="edgeLabel;html=1;align=center;verticalAlign=middle;resizable=0;points=[];" parent="WEQdJV-AUOeDAUo7Pmyu-31" vertex="1" connectable="0">
          <mxGeometry x="-0.0091" y="1" relative="1" as="geometry">
            <mxPoint as="offset" />
          </mxGeometry>
        </mxCell>
        <mxCell id="WEQdJV-AUOeDAUo7Pmyu-24" value="" style="image;sketch=0;aspect=fixed;html=1;points=[];align=center;fontSize=12;image=img/lib/mscae/Key.svg;" parent="1" vertex="1">
          <mxGeometry x="55" y="610" width="31" height="50" as="geometry" />
        </mxCell>
        <mxCell id="WEQdJV-AUOeDAUo7Pmyu-27" value="" style="outlineConnect=0;dashed=0;verticalLabelPosition=bottom;verticalAlign=top;align=center;html=1;shape=mxgraph.aws3.data_encryption_key;fillColor=#7D7C7C;gradientColor=none;" parent="1" vertex="1">
          <mxGeometry x="50" y="670" width="36.5" height="50" as="geometry" />
        </mxCell>
        <mxCell id="WEQdJV-AUOeDAUo7Pmyu-39" style="edgeStyle=orthogonalEdgeStyle;rounded=0;orthogonalLoop=1;jettySize=auto;html=1;exitX=0;exitY=0;exitDx=0;exitDy=105;exitPerimeter=0;" parent="1" source="WEQdJV-AUOeDAUo7Pmyu-28" edge="1">
          <mxGeometry relative="1" as="geometry">
            <mxPoint x="91" y="684.8235294117648" as="targetPoint" />
          </mxGeometry>
        </mxCell>
        <mxCell id="WEQdJV-AUOeDAUo7Pmyu-40" value="&lt;b&gt;&lt;i&gt;seal&lt;/i&gt;&lt;/b&gt; RESPONSE" style="edgeLabel;html=1;align=center;verticalAlign=middle;resizable=0;points=[];" parent="WEQdJV-AUOeDAUo7Pmyu-39" vertex="1" connectable="0">
          <mxGeometry x="0.1161" y="-2" relative="1" as="geometry">
            <mxPoint x="10" as="offset" />
          </mxGeometry>
        </mxCell>
        <mxCell id="WEQdJV-AUOeDAUo7Pmyu-28" value="TPM" style="shape=cylinder3;whiteSpace=wrap;html=1;boundedLbl=1;backgroundOutline=1;size=15;fillColor=#dae8fc;strokeColor=#6c8ebf;" parent="1" vertex="1">
          <mxGeometry x="291" y="580" width="90" height="150" as="geometry" />
        </mxCell>
        <mxCell id="WEQdJV-AUOeDAUo7Pmyu-43" value="" style="image;sketch=0;aspect=fixed;html=1;points=[];align=center;fontSize=12;image=img/lib/mscae/Key.svg;" parent="1" vertex="1">
          <mxGeometry x="490" y="670" width="31" height="50" as="geometry" />
        </mxCell>
        <mxCell id="WEQdJV-AUOeDAUo7Pmyu-50" style="edgeStyle=orthogonalEdgeStyle;rounded=0;orthogonalLoop=1;jettySize=auto;html=1;" parent="1" source="WEQdJV-AUOeDAUo7Pmyu-44" edge="1">
          <mxGeometry relative="1" as="geometry">
            <mxPoint x="699.9999999999998" y="635" as="targetPoint" />
          </mxGeometry>
        </mxCell>
        <mxCell id="WEQdJV-AUOeDAUo7Pmyu-52" value="&lt;b&gt;&lt;i&gt;unseal&lt;/i&gt;&lt;/b&gt; COMMAND" style="edgeLabel;html=1;align=center;verticalAlign=middle;resizable=0;points=[];" parent="WEQdJV-AUOeDAUo7Pmyu-50" vertex="1" connectable="0">
          <mxGeometry x="-0.3916" y="2" relative="1" as="geometry">
            <mxPoint x="34" y="2" as="offset" />
          </mxGeometry>
        </mxCell>
        <mxCell id="WEQdJV-AUOeDAUo7Pmyu-44" value="" style="outlineConnect=0;dashed=0;verticalLabelPosition=bottom;verticalAlign=top;align=center;html=1;shape=mxgraph.aws3.data_encryption_key;fillColor=#7D7C7C;gradientColor=none;" parent="1" vertex="1">
          <mxGeometry x="484.5" y="610" width="36.5" height="50" as="geometry" />
        </mxCell>
        <mxCell id="WEQdJV-AUOeDAUo7Pmyu-47" value="TPM" style="shape=cylinder3;whiteSpace=wrap;html=1;boundedLbl=1;backgroundOutline=1;size=15;fillColor=#dae8fc;strokeColor=#6c8ebf;" parent="1" vertex="1">
          <mxGeometry x="701" y="570" width="90" height="150" as="geometry" />
        </mxCell>
        <mxCell id="WEQdJV-AUOeDAUo7Pmyu-51" style="edgeStyle=orthogonalEdgeStyle;rounded=0;orthogonalLoop=1;jettySize=auto;html=1;exitX=0;exitY=0;exitDx=0;exitDy=105;exitPerimeter=0;entryX=1.097;entryY=0.499;entryDx=0;entryDy=0;entryPerimeter=0;" parent="1" source="WEQdJV-AUOeDAUo7Pmyu-47" target="WEQdJV-AUOeDAUo7Pmyu-43" edge="1">
          <mxGeometry relative="1" as="geometry" />
        </mxCell>
        <mxCell id="WEQdJV-AUOeDAUo7Pmyu-53" value="&lt;b&gt;&lt;i&gt;unseal&lt;/i&gt;&lt;/b&gt; RESPONSE" style="edgeLabel;html=1;align=center;verticalAlign=middle;resizable=0;points=[];" parent="WEQdJV-AUOeDAUo7Pmyu-51" vertex="1" connectable="0">
          <mxGeometry x="-0.0654" relative="1" as="geometry">
            <mxPoint as="offset" />
          </mxGeometry>
        </mxCell>
      </root>
    </mxGraphModel>
  </diagram>
  <diagram id="4UUbinOu7BYYk79vK7JT" name="03-pill">
    <mxGraphModel dx="1644" dy="498" grid="1" gridSize="10" guides="1" tooltips="1" connect="1" arrows="1" fold="1" page="1" pageScale="1" pageWidth="850" pageHeight="1100" background="#FFFFFF" math="0" shadow="0">
      <root>
        <mxCell id="0" />
        <mxCell id="1" parent="0" />
        <mxCell id="shvi1ORM_LRnAH6YYfkC-3" style="edgeStyle=orthogonalEdgeStyle;rounded=0;orthogonalLoop=1;jettySize=auto;html=1;exitX=1;exitY=0.25;exitDx=0;exitDy=0;entryX=0;entryY=0.25;entryDx=0;entryDy=0;" parent="1" source="shvi1ORM_LRnAH6YYfkC-1" target="shvi1ORM_LRnAH6YYfkC-2" edge="1">
          <mxGeometry relative="1" as="geometry" />
        </mxCell>
        <mxCell id="shvi1ORM_LRnAH6YYfkC-1" value="TPM LIBRARY" style="rounded=0;whiteSpace=wrap;html=1;" parent="1" vertex="1">
          <mxGeometry x="130" y="200" width="110" height="80" as="geometry" />
        </mxCell>
        <mxCell id="shvi1ORM_LRnAH6YYfkC-4" style="edgeStyle=orthogonalEdgeStyle;rounded=0;orthogonalLoop=1;jettySize=auto;html=1;exitX=0;exitY=0.75;exitDx=0;exitDy=0;entryX=1;entryY=0.75;entryDx=0;entryDy=0;" parent="1" source="shvi1ORM_LRnAH6YYfkC-2" target="shvi1ORM_LRnAH6YYfkC-1" edge="1">
          <mxGeometry relative="1" as="geometry" />
        </mxCell>
        <mxCell id="shvi1ORM_LRnAH6YYfkC-2" value="TPM" style="rounded=0;whiteSpace=wrap;html=1;fillColor=#dae8fc;strokeColor=#6c8ebf;" parent="1" vertex="1">
          <mxGeometry x="440" y="200" width="120" height="80" as="geometry" />
        </mxCell>
        <mxCell id="shvi1ORM_LRnAH6YYfkC-5" value="1" style="ellipse;whiteSpace=wrap;html=1;" parent="1" vertex="1">
          <mxGeometry x="260" y="180" width="30" height="30" as="geometry" />
        </mxCell>
        <mxCell id="shvi1ORM_LRnAH6YYfkC-6" value="&lt;font style=&quot;font-size: 10px;&quot;&gt;&lt;i&gt;COMMAND&lt;/i&gt;&lt;/font&gt;" style="text;html=1;align=center;verticalAlign=middle;resizable=0;points=[];autosize=1;strokeColor=none;fillColor=none;" parent="1" vertex="1">
          <mxGeometry x="310" y="180" width="80" height="30" as="geometry" />
        </mxCell>
        <mxCell id="shvi1ORM_LRnAH6YYfkC-8" value="2" style="ellipse;whiteSpace=wrap;html=1;" parent="1" vertex="1">
          <mxGeometry x="260" y="270" width="30" height="30" as="geometry" />
        </mxCell>
        <mxCell id="shvi1ORM_LRnAH6YYfkC-9" value="&lt;font style=&quot;font-size: 10px;&quot;&gt;&lt;i&gt;RESPONSE&lt;/i&gt;&lt;/font&gt;" style="text;html=1;align=center;verticalAlign=middle;resizable=0;points=[];autosize=1;strokeColor=none;fillColor=none;" parent="1" vertex="1">
          <mxGeometry x="310" y="270" width="80" height="30" as="geometry" />
        </mxCell>
        <mxCell id="shvi1ORM_LRnAH6YYfkC-19" style="edgeStyle=orthogonalEdgeStyle;rounded=0;orthogonalLoop=1;jettySize=auto;html=1;exitX=1;exitY=0.5;exitDx=0;exitDy=0;" parent="1" source="shvi1ORM_LRnAH6YYfkC-18" edge="1">
          <mxGeometry relative="1" as="geometry">
            <mxPoint x="290" y="430" as="targetPoint" />
          </mxGeometry>
        </mxCell>
        <mxCell id="shvi1ORM_LRnAH6YYfkC-18" value="APPLICATION" style="rounded=0;whiteSpace=wrap;html=1;fillColor=#d5e8d4;strokeColor=#82b366;" parent="1" vertex="1">
          <mxGeometry x="90" y="400" width="120" height="60" as="geometry" />
        </mxCell>
        <mxCell id="shvi1ORM_LRnAH6YYfkC-22" style="edgeStyle=orthogonalEdgeStyle;rounded=0;orthogonalLoop=1;jettySize=auto;html=1;exitX=1;exitY=0.5;exitDx=0;exitDy=0;" parent="1" source="shvi1ORM_LRnAH6YYfkC-21" edge="1">
          <mxGeometry relative="1" as="geometry">
            <mxPoint x="470" y="430" as="targetPoint" />
          </mxGeometry>
        </mxCell>
        <mxCell id="shvi1ORM_LRnAH6YYfkC-21" value="TPM LIBRARY" style="rounded=0;whiteSpace=wrap;html=1;" parent="1" vertex="1">
          <mxGeometry x="290" y="400" width="120" height="60" as="geometry" />
        </mxCell>
        <mxCell id="shvi1ORM_LRnAH6YYfkC-23" value="TPM" style="rounded=0;whiteSpace=wrap;html=1;fillColor=#dae8fc;strokeColor=#6c8ebf;" parent="1" vertex="1">
          <mxGeometry x="470" y="400" width="120" height="60" as="geometry" />
        </mxCell>
        <mxCell id="shvi1ORM_LRnAH6YYfkC-26" value="" style="rounded=0;whiteSpace=wrap;html=1;" parent="1" vertex="1">
          <mxGeometry x="270" y="530" width="160" height="160" as="geometry" />
        </mxCell>
        <mxCell id="shvi1ORM_LRnAH6YYfkC-27" value="TPM" style="rounded=0;whiteSpace=wrap;html=1;fillColor=#dae8fc;strokeColor=#6c8ebf;" parent="1" vertex="1">
          <mxGeometry x="470" y="580" width="120" height="60" as="geometry" />
        </mxCell>
        <mxCell id="shvi1ORM_LRnAH6YYfkC-30" value="OS&lt;br&gt;(&lt;i&gt;Operating System&lt;/i&gt;)" style="text;html=1;align=center;verticalAlign=middle;resizable=0;points=[];autosize=1;strokeColor=none;fillColor=none;" parent="1" vertex="1">
          <mxGeometry x="285" y="530" width="130" height="40" as="geometry" />
        </mxCell>
        <mxCell id="shvi1ORM_LRnAH6YYfkC-34" style="edgeStyle=orthogonalEdgeStyle;rounded=0;orthogonalLoop=1;jettySize=auto;html=1;exitX=1;exitY=0.5;exitDx=0;exitDy=0;entryX=0;entryY=0.5;entryDx=0;entryDy=0;" parent="1" source="shvi1ORM_LRnAH6YYfkC-31" target="shvi1ORM_LRnAH6YYfkC-27" edge="1">
          <mxGeometry relative="1" as="geometry" />
        </mxCell>
        <mxCell id="shvi1ORM_LRnAH6YYfkC-31" value="&lt;b&gt;/dev/tpm0&lt;/b&gt;" style="rounded=1;whiteSpace=wrap;html=1;fillColor=#fff2cc;strokeColor=#d6b656;" parent="1" vertex="1">
          <mxGeometry x="285" y="590" width="130" height="40" as="geometry" />
        </mxCell>
        <mxCell id="shvi1ORM_LRnAH6YYfkC-33" style="edgeStyle=orthogonalEdgeStyle;rounded=0;orthogonalLoop=1;jettySize=auto;html=1;entryX=0;entryY=0.5;entryDx=0;entryDy=0;" parent="1" source="shvi1ORM_LRnAH6YYfkC-32" target="shvi1ORM_LRnAH6YYfkC-31" edge="1">
          <mxGeometry relative="1" as="geometry" />
        </mxCell>
        <mxCell id="shvi1ORM_LRnAH6YYfkC-32" value="TPM LIBRARY" style="rounded=0;whiteSpace=wrap;html=1;" parent="1" vertex="1">
          <mxGeometry x="110" y="580" width="120" height="60" as="geometry" />
        </mxCell>
        <mxCell id="shvi1ORM_LRnAH6YYfkC-35" value="" style="rounded=0;whiteSpace=wrap;html=1;" parent="1" vertex="1">
          <mxGeometry x="270" y="740" width="160" height="160" as="geometry" />
        </mxCell>
        <mxCell id="shvi1ORM_LRnAH6YYfkC-36" value="TPM" style="rounded=0;whiteSpace=wrap;html=1;fillColor=#dae8fc;strokeColor=#6c8ebf;" parent="1" vertex="1">
          <mxGeometry x="470" y="790" width="120" height="60" as="geometry" />
        </mxCell>
        <mxCell id="shvi1ORM_LRnAH6YYfkC-37" value="OS&lt;br&gt;(&lt;i&gt;Operating System&lt;/i&gt;)" style="text;html=1;align=center;verticalAlign=middle;resizable=0;points=[];autosize=1;strokeColor=none;fillColor=none;" parent="1" vertex="1">
          <mxGeometry x="285" y="740" width="130" height="40" as="geometry" />
        </mxCell>
        <mxCell id="shvi1ORM_LRnAH6YYfkC-38" style="edgeStyle=orthogonalEdgeStyle;rounded=0;orthogonalLoop=1;jettySize=auto;html=1;exitX=1;exitY=0.5;exitDx=0;exitDy=0;entryX=0;entryY=0.5;entryDx=0;entryDy=0;" parent="1" source="shvi1ORM_LRnAH6YYfkC-39" target="shvi1ORM_LRnAH6YYfkC-36" edge="1">
          <mxGeometry relative="1" as="geometry" />
        </mxCell>
        <mxCell id="shvi1ORM_LRnAH6YYfkC-39" value="&lt;b&gt;/dev/tpm0&lt;/b&gt;" style="rounded=1;whiteSpace=wrap;html=1;fillColor=#fff2cc;strokeColor=#d6b656;" parent="1" vertex="1">
          <mxGeometry x="285" y="800" width="130" height="40" as="geometry" />
        </mxCell>
        <mxCell id="shvi1ORM_LRnAH6YYfkC-43" style="edgeStyle=orthogonalEdgeStyle;rounded=0;orthogonalLoop=1;jettySize=auto;html=1;entryX=0;entryY=0.5;entryDx=0;entryDy=0;" parent="1" source="shvi1ORM_LRnAH6YYfkC-41" target="shvi1ORM_LRnAH6YYfkC-42" edge="1">
          <mxGeometry relative="1" as="geometry" />
        </mxCell>
        <mxCell id="shvi1ORM_LRnAH6YYfkC-41" value="TPM LIBRARY" style="rounded=0;whiteSpace=wrap;html=1;" parent="1" vertex="1">
          <mxGeometry x="-60" y="790" width="120" height="60" as="geometry" />
        </mxCell>
        <mxCell id="shvi1ORM_LRnAH6YYfkC-44" style="edgeStyle=orthogonalEdgeStyle;rounded=0;orthogonalLoop=1;jettySize=auto;html=1;exitX=1;exitY=0.5;exitDx=0;exitDy=0;entryX=0;entryY=0.5;entryDx=0;entryDy=0;" parent="1" source="shvi1ORM_LRnAH6YYfkC-42" target="shvi1ORM_LRnAH6YYfkC-39" edge="1">
          <mxGeometry relative="1" as="geometry" />
        </mxCell>
        <mxCell id="shvi1ORM_LRnAH6YYfkC-42" value="RESOURCE MANAGER" style="rounded=0;whiteSpace=wrap;html=1;fillColor=#ffe6cc;strokeColor=#d79b00;" parent="1" vertex="1">
          <mxGeometry x="120" y="790" width="120" height="60" as="geometry" />
        </mxCell>
        <mxCell id="shvi1ORM_LRnAH6YYfkC-45" value="" style="rounded=0;whiteSpace=wrap;html=1;" parent="1" vertex="1">
          <mxGeometry x="270" y="940" width="160" height="160" as="geometry" />
        </mxCell>
        <mxCell id="shvi1ORM_LRnAH6YYfkC-46" value="TPM" style="rounded=0;whiteSpace=wrap;html=1;fillColor=#dae8fc;strokeColor=#6c8ebf;" parent="1" vertex="1">
          <mxGeometry x="470" y="990" width="120" height="60" as="geometry" />
        </mxCell>
        <mxCell id="shvi1ORM_LRnAH6YYfkC-47" value="OS&lt;br&gt;(&lt;i&gt;Operating System&lt;/i&gt;)" style="text;html=1;align=center;verticalAlign=middle;resizable=0;points=[];autosize=1;strokeColor=none;fillColor=none;" parent="1" vertex="1">
          <mxGeometry x="285" y="940" width="130" height="40" as="geometry" />
        </mxCell>
        <mxCell id="shvi1ORM_LRnAH6YYfkC-48" style="edgeStyle=orthogonalEdgeStyle;rounded=0;orthogonalLoop=1;jettySize=auto;html=1;exitX=1;exitY=0.5;exitDx=0;exitDy=0;entryX=0;entryY=0.5;entryDx=0;entryDy=0;" parent="1" source="shvi1ORM_LRnAH6YYfkC-49" target="shvi1ORM_LRnAH6YYfkC-46" edge="1">
          <mxGeometry relative="1" as="geometry" />
        </mxCell>
        <mxCell id="shvi1ORM_LRnAH6YYfkC-49" value="&lt;b&gt;/dev/tpmrm0&lt;/b&gt;" style="rounded=1;whiteSpace=wrap;html=1;fillColor=#ffe6cc;strokeColor=#d79b00;" parent="1" vertex="1">
          <mxGeometry x="285" y="1000" width="130" height="40" as="geometry" />
        </mxCell>
        <mxCell id="shvi1ORM_LRnAH6YYfkC-52" style="edgeStyle=orthogonalEdgeStyle;rounded=0;orthogonalLoop=1;jettySize=auto;html=1;exitX=1;exitY=0.5;exitDx=0;exitDy=0;entryX=0;entryY=0.5;entryDx=0;entryDy=0;" parent="1" source="shvi1ORM_LRnAH6YYfkC-53" target="shvi1ORM_LRnAH6YYfkC-49" edge="1">
          <mxGeometry relative="1" as="geometry" />
        </mxCell>
        <mxCell id="shvi1ORM_LRnAH6YYfkC-53" value="TPM LIBRARY" style="rounded=0;whiteSpace=wrap;html=1;" parent="1" vertex="1">
          <mxGeometry x="120" y="990" width="120" height="60" as="geometry" />
        </mxCell>
        <mxCell id="shvi1ORM_LRnAH6YYfkC-54" value="&lt;b&gt;/dev/tpm0&lt;/b&gt;" style="rounded=1;whiteSpace=wrap;html=1;fillColor=#fff2cc;strokeColor=#d6b656;" parent="1" vertex="1">
          <mxGeometry x="285" y="1050" width="130" height="40" as="geometry" />
        </mxCell>
        <mxCell id="shvi1ORM_LRnAH6YYfkC-56" style="edgeStyle=orthogonalEdgeStyle;rounded=0;orthogonalLoop=1;jettySize=auto;html=1;entryX=0;entryY=0.5;entryDx=0;entryDy=0;" parent="1" source="shvi1ORM_LRnAH6YYfkC-55" target="shvi1ORM_LRnAH6YYfkC-53" edge="1">
          <mxGeometry relative="1" as="geometry" />
        </mxCell>
        <mxCell id="shvi1ORM_LRnAH6YYfkC-55" value="APPLICATION" style="rounded=0;whiteSpace=wrap;html=1;fillColor=#d5e8d4;strokeColor=#82b366;" parent="1" vertex="1">
          <mxGeometry x="-60" y="990" width="120" height="60" as="geometry" />
        </mxCell>
        <mxCell id="UdzM56_FXllrJFz6XkDE-2" value="TPM" style="rounded=0;whiteSpace=wrap;html=1;fillColor=#dae8fc;strokeColor=#6c8ebf;" vertex="1" parent="1">
          <mxGeometry x="470" y="1190" width="120" height="60" as="geometry" />
        </mxCell>
        <mxCell id="UdzM56_FXllrJFz6XkDE-4" style="edgeStyle=orthogonalEdgeStyle;rounded=0;orthogonalLoop=1;jettySize=auto;html=1;exitX=1;exitY=0.5;exitDx=0;exitDy=0;entryX=0;entryY=0.5;entryDx=0;entryDy=0;" edge="1" parent="1" target="UdzM56_FXllrJFz6XkDE-2">
          <mxGeometry relative="1" as="geometry">
            <mxPoint x="415" y="1220" as="sourcePoint" />
          </mxGeometry>
        </mxCell>
        <mxCell id="UdzM56_FXllrJFz6XkDE-11" style="edgeStyle=orthogonalEdgeStyle;rounded=0;orthogonalLoop=1;jettySize=auto;html=1;entryX=0;entryY=0.5;entryDx=0;entryDy=0;" edge="1" parent="1" source="UdzM56_FXllrJFz6XkDE-7" target="UdzM56_FXllrJFz6XkDE-9">
          <mxGeometry relative="1" as="geometry" />
        </mxCell>
        <mxCell id="UdzM56_FXllrJFz6XkDE-12" value="libusb" style="edgeLabel;html=1;align=center;verticalAlign=middle;resizable=0;points=[];" vertex="1" connectable="0" parent="UdzM56_FXllrJFz6XkDE-11">
          <mxGeometry x="-0.1455" relative="1" as="geometry">
            <mxPoint x="1" as="offset" />
          </mxGeometry>
        </mxCell>
        <mxCell id="UdzM56_FXllrJFz6XkDE-7" value="tcti-spi-ltt2go" style="rounded=0;whiteSpace=wrap;html=1;" vertex="1" parent="1">
          <mxGeometry x="120" y="1190" width="120" height="60" as="geometry" />
        </mxCell>
        <mxCell id="UdzM56_FXllrJFz6XkDE-10" value="SPI" style="edgeStyle=orthogonalEdgeStyle;rounded=0;orthogonalLoop=1;jettySize=auto;html=1;" edge="1" parent="1" source="UdzM56_FXllrJFz6XkDE-9" target="UdzM56_FXllrJFz6XkDE-2">
          <mxGeometry relative="1" as="geometry" />
        </mxCell>
        <mxCell id="UdzM56_FXllrJFz6XkDE-9" value="USB2.0 SPI bridge" style="shape=hexagon;perimeter=hexagonPerimeter2;whiteSpace=wrap;html=1;fixedSize=1;fillColor=#dae8fc;strokeColor=#6c8ebf;size=25;" vertex="1" parent="1">
          <mxGeometry x="295" y="1200" width="120" height="40" as="geometry" />
        </mxCell>
      </root>
    </mxGraphModel>
  </diagram>
  <diagram id="m0e5DJawzSheMDx_dkKL" name="04-pill">
    <mxGraphModel dx="882" dy="577" grid="1" gridSize="10" guides="1" tooltips="1" connect="1" arrows="1" fold="1" page="1" pageScale="1" pageWidth="850" pageHeight="1100" background="#ffffff" math="0" shadow="0">
      <root>
        <mxCell id="0" />
        <mxCell id="1" parent="0" />
        <mxCell id="XOFT7rcHnr7v7DAxb5LV-5" style="edgeStyle=orthogonalEdgeStyle;rounded=0;orthogonalLoop=1;jettySize=auto;html=1;" edge="1" parent="1" source="XOFT7rcHnr7v7DAxb5LV-1" target="XOFT7rcHnr7v7DAxb5LV-2">
          <mxGeometry relative="1" as="geometry" />
        </mxCell>
        <mxCell id="XOFT7rcHnr7v7DAxb5LV-8" style="edgeStyle=orthogonalEdgeStyle;rounded=0;orthogonalLoop=1;jettySize=auto;html=1;" edge="1" parent="1" source="XOFT7rcHnr7v7DAxb5LV-1" target="XOFT7rcHnr7v7DAxb5LV-4">
          <mxGeometry relative="1" as="geometry" />
        </mxCell>
        <mxCell id="XOFT7rcHnr7v7DAxb5LV-1" value="&lt;font style=&quot;font-size: 19px;&quot;&gt;A&lt;/font&gt;" style="rounded=0;whiteSpace=wrap;html=1;fillColor=#ffe6cc;strokeColor=#d79b00;" vertex="1" parent="1">
          <mxGeometry x="320" y="40" width="120" height="60" as="geometry" />
        </mxCell>
        <mxCell id="XOFT7rcHnr7v7DAxb5LV-6" style="edgeStyle=orthogonalEdgeStyle;rounded=0;orthogonalLoop=1;jettySize=auto;html=1;" edge="1" parent="1" source="XOFT7rcHnr7v7DAxb5LV-2" target="XOFT7rcHnr7v7DAxb5LV-3">
          <mxGeometry relative="1" as="geometry" />
        </mxCell>
        <mxCell id="XOFT7rcHnr7v7DAxb5LV-2" value="&lt;font style=&quot;font-size: 19px;&quot;&gt;B&lt;/font&gt;" style="rounded=0;whiteSpace=wrap;html=1;fillColor=#fff2cc;strokeColor=#d6b656;" vertex="1" parent="1">
          <mxGeometry x="200" y="160" width="120" height="60" as="geometry" />
        </mxCell>
        <mxCell id="XOFT7rcHnr7v7DAxb5LV-3" value="&lt;font style=&quot;font-size: 19px;&quot;&gt;B2&lt;/font&gt;" style="rounded=0;whiteSpace=wrap;html=1;fillColor=#fff2cc;strokeColor=#d6b656;" vertex="1" parent="1">
          <mxGeometry x="80" y="280" width="120" height="60" as="geometry" />
        </mxCell>
        <mxCell id="XOFT7rcHnr7v7DAxb5LV-4" value="&lt;font style=&quot;font-size: 19px;&quot;&gt;C&lt;/font&gt;" style="rounded=0;whiteSpace=wrap;html=1;fillColor=#fff2cc;strokeColor=#d6b656;" vertex="1" parent="1">
          <mxGeometry x="440" y="160" width="120" height="60" as="geometry" />
        </mxCell>
        <mxCell id="XOFT7rcHnr7v7DAxb5LV-46" value="" style="group" vertex="1" connectable="0" parent="1">
          <mxGeometry x="85" y="510" width="320" height="200" as="geometry" />
        </mxCell>
        <mxCell id="XOFT7rcHnr7v7DAxb5LV-44" value="" style="verticalLabelPosition=bottom;verticalAlign=top;html=1;shape=mxgraph.basic.rect;fillColor2=none;strokeWidth=1;size=20;indent=5;dashed=1;dashPattern=12 12;sketch=1;curveFitting=1;jiggle=2;" vertex="1" parent="XOFT7rcHnr7v7DAxb5LV-46">
          <mxGeometry width="320" height="200" as="geometry" />
        </mxCell>
        <mxCell id="XOFT7rcHnr7v7DAxb5LV-26" value="" style="group" vertex="1" connectable="0" parent="XOFT7rcHnr7v7DAxb5LV-46">
          <mxGeometry x="20" y="40" width="280" height="140" as="geometry" />
        </mxCell>
        <mxCell id="XOFT7rcHnr7v7DAxb5LV-32" style="edgeStyle=orthogonalEdgeStyle;rounded=0;orthogonalLoop=1;jettySize=auto;html=1;exitX=0.5;exitY=1;exitDx=0;exitDy=0;entryX=0.5;entryY=0;entryDx=0;entryDy=0;" edge="1" parent="XOFT7rcHnr7v7DAxb5LV-26" source="XOFT7rcHnr7v7DAxb5LV-21" target="XOFT7rcHnr7v7DAxb5LV-23">
          <mxGeometry relative="1" as="geometry">
            <Array as="points">
              <mxPoint x="175" y="36" />
              <mxPoint x="105" y="36" />
            </Array>
          </mxGeometry>
        </mxCell>
        <mxCell id="XOFT7rcHnr7v7DAxb5LV-33" style="edgeStyle=orthogonalEdgeStyle;rounded=0;orthogonalLoop=1;jettySize=auto;html=1;entryX=0.5;entryY=0;entryDx=0;entryDy=0;" edge="1" parent="XOFT7rcHnr7v7DAxb5LV-26" source="XOFT7rcHnr7v7DAxb5LV-21" target="XOFT7rcHnr7v7DAxb5LV-25">
          <mxGeometry relative="1" as="geometry">
            <Array as="points">
              <mxPoint x="175" y="36" />
              <mxPoint x="245" y="36" />
            </Array>
          </mxGeometry>
        </mxCell>
        <mxCell id="XOFT7rcHnr7v7DAxb5LV-21" value="" style="rounded=0;whiteSpace=wrap;html=1;fillColor=#ffe6cc;strokeColor=#d79b00;" vertex="1" parent="XOFT7rcHnr7v7DAxb5LV-26">
          <mxGeometry x="140" width="70" height="28" as="geometry" />
        </mxCell>
        <mxCell id="XOFT7rcHnr7v7DAxb5LV-40" style="edgeStyle=orthogonalEdgeStyle;rounded=0;orthogonalLoop=1;jettySize=auto;html=1;exitX=0.5;exitY=1;exitDx=0;exitDy=0;" edge="1" parent="XOFT7rcHnr7v7DAxb5LV-26" source="XOFT7rcHnr7v7DAxb5LV-23" target="XOFT7rcHnr7v7DAxb5LV-24">
          <mxGeometry relative="1" as="geometry">
            <Array as="points">
              <mxPoint x="105" y="92" />
              <mxPoint x="35" y="92" />
            </Array>
          </mxGeometry>
        </mxCell>
        <mxCell id="XOFT7rcHnr7v7DAxb5LV-23" value="" style="rounded=0;whiteSpace=wrap;html=1;fillColor=#fff2cc;strokeColor=#d6b656;" vertex="1" parent="XOFT7rcHnr7v7DAxb5LV-26">
          <mxGeometry x="70" y="56" width="70" height="28" as="geometry" />
        </mxCell>
        <mxCell id="XOFT7rcHnr7v7DAxb5LV-24" value="" style="rounded=0;whiteSpace=wrap;html=1;fillColor=#fff2cc;strokeColor=#d6b656;" vertex="1" parent="XOFT7rcHnr7v7DAxb5LV-26">
          <mxGeometry y="112" width="70" height="28" as="geometry" />
        </mxCell>
        <mxCell id="XOFT7rcHnr7v7DAxb5LV-25" value="" style="rounded=0;whiteSpace=wrap;html=1;fillColor=#fff2cc;strokeColor=#d6b656;" vertex="1" parent="XOFT7rcHnr7v7DAxb5LV-26">
          <mxGeometry x="210.00000000000003" y="56" width="70" height="28" as="geometry" />
        </mxCell>
        <mxCell id="XOFT7rcHnr7v7DAxb5LV-45" value="&lt;b&gt;&lt;i&gt;ENDORSEMENT&lt;/i&gt;&lt;/b&gt;" style="text;html=1;align=center;verticalAlign=middle;resizable=0;points=[];autosize=1;strokeColor=none;fillColor=none;" vertex="1" parent="XOFT7rcHnr7v7DAxb5LV-46">
          <mxGeometry x="100" width="120" height="30" as="geometry" />
        </mxCell>
        <mxCell id="XOFT7rcHnr7v7DAxb5LV-47" value="" style="group" vertex="1" connectable="0" parent="1">
          <mxGeometry x="445" y="510" width="320" height="200" as="geometry" />
        </mxCell>
        <mxCell id="XOFT7rcHnr7v7DAxb5LV-48" value="" style="verticalLabelPosition=bottom;verticalAlign=top;html=1;shape=mxgraph.basic.rect;fillColor2=none;strokeWidth=1;size=20;indent=5;dashed=1;dashPattern=12 12;sketch=1;curveFitting=1;jiggle=2;" vertex="1" parent="XOFT7rcHnr7v7DAxb5LV-47">
          <mxGeometry width="320" height="200" as="geometry" />
        </mxCell>
        <mxCell id="XOFT7rcHnr7v7DAxb5LV-49" value="" style="group" vertex="1" connectable="0" parent="XOFT7rcHnr7v7DAxb5LV-47">
          <mxGeometry x="20" y="40" width="280" height="140" as="geometry" />
        </mxCell>
        <mxCell id="XOFT7rcHnr7v7DAxb5LV-50" style="edgeStyle=orthogonalEdgeStyle;rounded=0;orthogonalLoop=1;jettySize=auto;html=1;exitX=0.5;exitY=1;exitDx=0;exitDy=0;entryX=0.5;entryY=0;entryDx=0;entryDy=0;" edge="1" parent="XOFT7rcHnr7v7DAxb5LV-49" source="XOFT7rcHnr7v7DAxb5LV-52" target="XOFT7rcHnr7v7DAxb5LV-54">
          <mxGeometry relative="1" as="geometry">
            <Array as="points">
              <mxPoint x="175" y="36" />
              <mxPoint x="105" y="36" />
            </Array>
          </mxGeometry>
        </mxCell>
        <mxCell id="XOFT7rcHnr7v7DAxb5LV-51" style="edgeStyle=orthogonalEdgeStyle;rounded=0;orthogonalLoop=1;jettySize=auto;html=1;entryX=0.5;entryY=0;entryDx=0;entryDy=0;" edge="1" parent="XOFT7rcHnr7v7DAxb5LV-49" source="XOFT7rcHnr7v7DAxb5LV-52" target="XOFT7rcHnr7v7DAxb5LV-56">
          <mxGeometry relative="1" as="geometry">
            <Array as="points">
              <mxPoint x="175" y="36" />
              <mxPoint x="245" y="36" />
            </Array>
          </mxGeometry>
        </mxCell>
        <mxCell id="XOFT7rcHnr7v7DAxb5LV-52" value="" style="rounded=0;whiteSpace=wrap;html=1;fillColor=#ffe6cc;strokeColor=#d79b00;" vertex="1" parent="XOFT7rcHnr7v7DAxb5LV-49">
          <mxGeometry x="140" width="70" height="28" as="geometry" />
        </mxCell>
        <mxCell id="XOFT7rcHnr7v7DAxb5LV-53" style="edgeStyle=orthogonalEdgeStyle;rounded=0;orthogonalLoop=1;jettySize=auto;html=1;exitX=0.5;exitY=1;exitDx=0;exitDy=0;" edge="1" parent="XOFT7rcHnr7v7DAxb5LV-49" source="XOFT7rcHnr7v7DAxb5LV-54" target="XOFT7rcHnr7v7DAxb5LV-55">
          <mxGeometry relative="1" as="geometry">
            <Array as="points">
              <mxPoint x="105" y="92" />
              <mxPoint x="35" y="92" />
            </Array>
          </mxGeometry>
        </mxCell>
        <mxCell id="XOFT7rcHnr7v7DAxb5LV-54" value="" style="rounded=0;whiteSpace=wrap;html=1;fillColor=#fff2cc;strokeColor=#d6b656;" vertex="1" parent="XOFT7rcHnr7v7DAxb5LV-49">
          <mxGeometry x="70" y="56" width="70" height="28" as="geometry" />
        </mxCell>
        <mxCell id="XOFT7rcHnr7v7DAxb5LV-55" value="" style="rounded=0;whiteSpace=wrap;html=1;fillColor=#fff2cc;strokeColor=#d6b656;" vertex="1" parent="XOFT7rcHnr7v7DAxb5LV-49">
          <mxGeometry y="112" width="70" height="28" as="geometry" />
        </mxCell>
        <mxCell id="XOFT7rcHnr7v7DAxb5LV-56" value="" style="rounded=0;whiteSpace=wrap;html=1;fillColor=#fff2cc;strokeColor=#d6b656;" vertex="1" parent="XOFT7rcHnr7v7DAxb5LV-49">
          <mxGeometry x="210.00000000000003" y="56" width="70" height="28" as="geometry" />
        </mxCell>
        <mxCell id="XOFT7rcHnr7v7DAxb5LV-57" value="&lt;b&gt;&lt;i&gt;PLATFORM&lt;/i&gt;&lt;/b&gt;" style="text;html=1;align=center;verticalAlign=middle;resizable=0;points=[];autosize=1;strokeColor=none;fillColor=none;" vertex="1" parent="XOFT7rcHnr7v7DAxb5LV-47">
          <mxGeometry x="115" width="90" height="30" as="geometry" />
        </mxCell>
        <mxCell id="XOFT7rcHnr7v7DAxb5LV-59" value="" style="group" vertex="1" connectable="0" parent="1">
          <mxGeometry x="85" y="750" width="320" height="200" as="geometry" />
        </mxCell>
        <mxCell id="XOFT7rcHnr7v7DAxb5LV-60" value="" style="verticalLabelPosition=bottom;verticalAlign=top;html=1;shape=mxgraph.basic.rect;fillColor2=none;strokeWidth=1;size=20;indent=5;dashed=1;dashPattern=12 12;sketch=1;curveFitting=1;jiggle=2;" vertex="1" parent="XOFT7rcHnr7v7DAxb5LV-59">
          <mxGeometry width="320" height="200" as="geometry" />
        </mxCell>
        <mxCell id="XOFT7rcHnr7v7DAxb5LV-61" value="" style="group" vertex="1" connectable="0" parent="XOFT7rcHnr7v7DAxb5LV-59">
          <mxGeometry x="20" y="40" width="280" height="140" as="geometry" />
        </mxCell>
        <mxCell id="XOFT7rcHnr7v7DAxb5LV-62" style="edgeStyle=orthogonalEdgeStyle;rounded=0;orthogonalLoop=1;jettySize=auto;html=1;exitX=0.5;exitY=1;exitDx=0;exitDy=0;entryX=0.5;entryY=0;entryDx=0;entryDy=0;" edge="1" parent="XOFT7rcHnr7v7DAxb5LV-61" source="XOFT7rcHnr7v7DAxb5LV-64" target="XOFT7rcHnr7v7DAxb5LV-66">
          <mxGeometry relative="1" as="geometry">
            <Array as="points">
              <mxPoint x="175" y="36" />
              <mxPoint x="105" y="36" />
            </Array>
          </mxGeometry>
        </mxCell>
        <mxCell id="XOFT7rcHnr7v7DAxb5LV-63" style="edgeStyle=orthogonalEdgeStyle;rounded=0;orthogonalLoop=1;jettySize=auto;html=1;entryX=0.5;entryY=0;entryDx=0;entryDy=0;" edge="1" parent="XOFT7rcHnr7v7DAxb5LV-61" source="XOFT7rcHnr7v7DAxb5LV-64" target="XOFT7rcHnr7v7DAxb5LV-68">
          <mxGeometry relative="1" as="geometry">
            <Array as="points">
              <mxPoint x="175" y="36" />
              <mxPoint x="245" y="36" />
            </Array>
          </mxGeometry>
        </mxCell>
        <mxCell id="XOFT7rcHnr7v7DAxb5LV-64" value="" style="rounded=0;whiteSpace=wrap;html=1;fillColor=#ffe6cc;strokeColor=#d79b00;" vertex="1" parent="XOFT7rcHnr7v7DAxb5LV-61">
          <mxGeometry x="140" width="70" height="28" as="geometry" />
        </mxCell>
        <mxCell id="XOFT7rcHnr7v7DAxb5LV-65" style="edgeStyle=orthogonalEdgeStyle;rounded=0;orthogonalLoop=1;jettySize=auto;html=1;exitX=0.5;exitY=1;exitDx=0;exitDy=0;" edge="1" parent="XOFT7rcHnr7v7DAxb5LV-61" source="XOFT7rcHnr7v7DAxb5LV-66" target="XOFT7rcHnr7v7DAxb5LV-67">
          <mxGeometry relative="1" as="geometry">
            <Array as="points">
              <mxPoint x="105" y="92" />
              <mxPoint x="35" y="92" />
            </Array>
          </mxGeometry>
        </mxCell>
        <mxCell id="XOFT7rcHnr7v7DAxb5LV-66" value="" style="rounded=0;whiteSpace=wrap;html=1;fillColor=#fff2cc;strokeColor=#d6b656;" vertex="1" parent="XOFT7rcHnr7v7DAxb5LV-61">
          <mxGeometry x="70" y="56" width="70" height="28" as="geometry" />
        </mxCell>
        <mxCell id="XOFT7rcHnr7v7DAxb5LV-67" value="" style="rounded=0;whiteSpace=wrap;html=1;fillColor=#fff2cc;strokeColor=#d6b656;" vertex="1" parent="XOFT7rcHnr7v7DAxb5LV-61">
          <mxGeometry y="112" width="70" height="28" as="geometry" />
        </mxCell>
        <mxCell id="XOFT7rcHnr7v7DAxb5LV-68" value="" style="rounded=0;whiteSpace=wrap;html=1;fillColor=#fff2cc;strokeColor=#d6b656;" vertex="1" parent="XOFT7rcHnr7v7DAxb5LV-61">
          <mxGeometry x="210.00000000000003" y="56" width="70" height="28" as="geometry" />
        </mxCell>
        <mxCell id="XOFT7rcHnr7v7DAxb5LV-69" value="&lt;b&gt;&lt;i&gt;STORAGE&lt;/i&gt;&lt;/b&gt;" style="text;html=1;align=center;verticalAlign=middle;resizable=0;points=[];autosize=1;strokeColor=none;fillColor=none;" vertex="1" parent="XOFT7rcHnr7v7DAxb5LV-59">
          <mxGeometry x="120" width="80" height="30" as="geometry" />
        </mxCell>
        <mxCell id="XOFT7rcHnr7v7DAxb5LV-70" value="" style="group" vertex="1" connectable="0" parent="1">
          <mxGeometry x="445" y="750" width="320" height="200" as="geometry" />
        </mxCell>
        <mxCell id="XOFT7rcHnr7v7DAxb5LV-71" value="" style="verticalLabelPosition=bottom;verticalAlign=top;html=1;shape=mxgraph.basic.rect;fillColor2=none;strokeWidth=1;size=20;indent=5;dashed=1;dashPattern=12 12;sketch=1;curveFitting=1;jiggle=2;" vertex="1" parent="XOFT7rcHnr7v7DAxb5LV-70">
          <mxGeometry width="320" height="200" as="geometry" />
        </mxCell>
        <mxCell id="XOFT7rcHnr7v7DAxb5LV-72" value="" style="group" vertex="1" connectable="0" parent="XOFT7rcHnr7v7DAxb5LV-70">
          <mxGeometry x="20" y="40" width="280" height="140" as="geometry" />
        </mxCell>
        <mxCell id="XOFT7rcHnr7v7DAxb5LV-73" style="edgeStyle=orthogonalEdgeStyle;rounded=0;orthogonalLoop=1;jettySize=auto;html=1;exitX=0.5;exitY=1;exitDx=0;exitDy=0;entryX=0.5;entryY=0;entryDx=0;entryDy=0;" edge="1" parent="XOFT7rcHnr7v7DAxb5LV-72" source="XOFT7rcHnr7v7DAxb5LV-75" target="XOFT7rcHnr7v7DAxb5LV-77">
          <mxGeometry relative="1" as="geometry">
            <Array as="points">
              <mxPoint x="175" y="36" />
              <mxPoint x="105" y="36" />
            </Array>
          </mxGeometry>
        </mxCell>
        <mxCell id="XOFT7rcHnr7v7DAxb5LV-74" style="edgeStyle=orthogonalEdgeStyle;rounded=0;orthogonalLoop=1;jettySize=auto;html=1;entryX=0.5;entryY=0;entryDx=0;entryDy=0;" edge="1" parent="XOFT7rcHnr7v7DAxb5LV-72" source="XOFT7rcHnr7v7DAxb5LV-75" target="XOFT7rcHnr7v7DAxb5LV-79">
          <mxGeometry relative="1" as="geometry">
            <Array as="points">
              <mxPoint x="175" y="36" />
              <mxPoint x="245" y="36" />
            </Array>
          </mxGeometry>
        </mxCell>
        <mxCell id="XOFT7rcHnr7v7DAxb5LV-75" value="" style="rounded=0;whiteSpace=wrap;html=1;fillColor=#ffe6cc;strokeColor=#d79b00;" vertex="1" parent="XOFT7rcHnr7v7DAxb5LV-72">
          <mxGeometry x="140" width="70" height="28" as="geometry" />
        </mxCell>
        <mxCell id="XOFT7rcHnr7v7DAxb5LV-76" style="edgeStyle=orthogonalEdgeStyle;rounded=0;orthogonalLoop=1;jettySize=auto;html=1;exitX=0.5;exitY=1;exitDx=0;exitDy=0;" edge="1" parent="XOFT7rcHnr7v7DAxb5LV-72" source="XOFT7rcHnr7v7DAxb5LV-77" target="XOFT7rcHnr7v7DAxb5LV-78">
          <mxGeometry relative="1" as="geometry">
            <Array as="points">
              <mxPoint x="105" y="92" />
              <mxPoint x="35" y="92" />
            </Array>
          </mxGeometry>
        </mxCell>
        <mxCell id="XOFT7rcHnr7v7DAxb5LV-77" value="" style="rounded=0;whiteSpace=wrap;html=1;fillColor=#fff2cc;strokeColor=#d6b656;" vertex="1" parent="XOFT7rcHnr7v7DAxb5LV-72">
          <mxGeometry x="70" y="56" width="70" height="28" as="geometry" />
        </mxCell>
        <mxCell id="XOFT7rcHnr7v7DAxb5LV-78" value="" style="rounded=0;whiteSpace=wrap;html=1;fillColor=#fff2cc;strokeColor=#d6b656;" vertex="1" parent="XOFT7rcHnr7v7DAxb5LV-72">
          <mxGeometry y="112" width="70" height="28" as="geometry" />
        </mxCell>
        <mxCell id="XOFT7rcHnr7v7DAxb5LV-79" value="" style="rounded=0;whiteSpace=wrap;html=1;fillColor=#fff2cc;strokeColor=#d6b656;" vertex="1" parent="XOFT7rcHnr7v7DAxb5LV-72">
          <mxGeometry x="210.00000000000003" y="56" width="70" height="28" as="geometry" />
        </mxCell>
        <mxCell id="XOFT7rcHnr7v7DAxb5LV-80" value="&lt;b&gt;&lt;i&gt;NULL&lt;/i&gt;&lt;/b&gt;" style="text;html=1;align=center;verticalAlign=middle;resizable=0;points=[];autosize=1;strokeColor=none;fillColor=none;" vertex="1" parent="XOFT7rcHnr7v7DAxb5LV-70">
          <mxGeometry x="130" width="60" height="30" as="geometry" />
        </mxCell>
        <mxCell id="fASBOSe3FYGeUXY_BS8q-3" value="" style="edgeStyle=orthogonalEdgeStyle;rounded=0;orthogonalLoop=1;jettySize=auto;html=1;" edge="1" parent="1" source="fASBOSe3FYGeUXY_BS8q-4" target="fASBOSe3FYGeUXY_BS8q-5">
          <mxGeometry relative="1" as="geometry" />
        </mxCell>
        <mxCell id="fASBOSe3FYGeUXY_BS8q-4" value="&lt;span style=&quot;font-size: 19px;&quot;&gt;Parent Key&lt;/span&gt;" style="rounded=0;whiteSpace=wrap;html=1;fillColor=#fff2cc;strokeColor=#d6b656;" vertex="1" parent="1">
          <mxGeometry x="246" y="1100" width="120" height="60" as="geometry" />
        </mxCell>
        <mxCell id="fASBOSe3FYGeUXY_BS8q-5" value="&lt;span style=&quot;font-size: 19px;&quot;&gt;Child Key&lt;/span&gt;" style="whiteSpace=wrap;html=1;fillColor=#fff2cc;strokeColor=#d6b656;rounded=0;" vertex="1" parent="1">
          <mxGeometry x="246" y="1240" width="120" height="60" as="geometry" />
        </mxCell>
        <mxCell id="fASBOSe3FYGeUXY_BS8q-6" style="edgeStyle=orthogonalEdgeStyle;rounded=0;orthogonalLoop=1;jettySize=auto;html=1;entryX=0.5;entryY=0;entryDx=0;entryDy=0;" edge="1" parent="1" source="fASBOSe3FYGeUXY_BS8q-8" target="fASBOSe3FYGeUXY_BS8q-9">
          <mxGeometry relative="1" as="geometry">
            <mxPoint x="536" y="1230" as="targetPoint" />
          </mxGeometry>
        </mxCell>
        <mxCell id="fASBOSe3FYGeUXY_BS8q-7" value="ENCRYPT" style="edgeLabel;html=1;align=center;verticalAlign=middle;resizable=0;points=[];" vertex="1" connectable="0" parent="fASBOSe3FYGeUXY_BS8q-6">
          <mxGeometry x="-0.0174" y="-1" relative="1" as="geometry">
            <mxPoint y="-1" as="offset" />
          </mxGeometry>
        </mxCell>
        <mxCell id="fASBOSe3FYGeUXY_BS8q-8" value="&lt;span style=&quot;font-size: 19px;&quot;&gt;Parent Key&lt;/span&gt;" style="rounded=0;whiteSpace=wrap;html=1;fillColor=#fff2cc;strokeColor=#d6b656;" vertex="1" parent="1">
          <mxGeometry x="476" y="1100" width="120" height="60" as="geometry" />
        </mxCell>
        <mxCell id="fASBOSe3FYGeUXY_BS8q-9" value="&lt;span style=&quot;font-size: 19px;&quot;&gt;Child Key&lt;/span&gt;" style="whiteSpace=wrap;html=1;rounded=0;fillStyle=auto;strokeWidth=0;fillColor=#bac8d3;strokeColor=#23445d;" vertex="1" parent="1">
          <mxGeometry x="476" y="1240" width="120" height="60" as="geometry" />
        </mxCell>
        <mxCell id="fASBOSe3FYGeUXY_BS8q-10" value="" style="sketch=0;pointerEvents=1;shadow=0;dashed=0;html=1;strokeColor=none;fillColor=#505050;labelPosition=center;verticalLabelPosition=bottom;verticalAlign=top;outlineConnect=0;align=center;shape=mxgraph.office.security.lock_protected;" vertex="1" parent="1">
          <mxGeometry x="576" y="1230" width="28" height="32" as="geometry" />
        </mxCell>
      </root>
    </mxGraphModel>
  </diagram>
  <diagram id="eJ05bR54BSyi4vRtv4MV" name="05-pill">
    <mxGraphModel dx="794" dy="518" grid="1" gridSize="10" guides="1" tooltips="1" connect="1" arrows="1" fold="1" page="1" pageScale="1" pageWidth="850" pageHeight="1100" background="#ffffff" math="0" shadow="0">
      <root>
        <mxCell id="0" />
        <mxCell id="1" parent="0" />
        <mxCell id="CSZjJ05-GNj9Toq0F16F-1" value="" style="rounded=0;whiteSpace=wrap;html=1;" vertex="1" parent="1">
          <mxGeometry x="160" y="200" width="260" height="160" as="geometry" />
        </mxCell>
        <mxCell id="CSZjJ05-GNj9Toq0F16F-3" value="&lt;b&gt;TPMS_ATTEST&lt;/b&gt;" style="text;html=1;align=center;verticalAlign=middle;whiteSpace=wrap;rounded=0;" vertex="1" parent="1">
          <mxGeometry x="260" y="200" width="60" height="30" as="geometry" />
        </mxCell>
        <mxCell id="CSZjJ05-GNj9Toq0F16F-4" value="magic: TPM_GENERATED_VALUE" style="rounded=0;whiteSpace=wrap;html=1;fillColor=#fff2cc;strokeColor=#d6b656;" vertex="1" parent="1">
          <mxGeometry x="170" y="240" width="240" height="30" as="geometry" />
        </mxCell>
        <mxCell id="CSZjJ05-GNj9Toq0F16F-5" value="CONTENT" style="rounded=0;whiteSpace=wrap;html=1;fillColor=#dae8fc;strokeColor=#6c8ebf;" vertex="1" parent="1">
          <mxGeometry x="170" y="290" width="240" height="60" as="geometry" />
        </mxCell>
        <mxCell id="CSZjJ05-GNj9Toq0F16F-6" value="" style="rounded=0;whiteSpace=wrap;html=1;fillColor=#fff2cc;strokeColor=#d6b656;" vertex="1" parent="1">
          <mxGeometry x="190" y="400" width="50" height="30" as="geometry" />
        </mxCell>
        <mxCell id="CSZjJ05-GNj9Toq0F16F-7" value="header" style="text;html=1;align=center;verticalAlign=middle;resizable=0;points=[];autosize=1;strokeColor=none;fillColor=none;" vertex="1" parent="1">
          <mxGeometry x="240" y="400" width="60" height="30" as="geometry" />
        </mxCell>
        <mxCell id="CSZjJ05-GNj9Toq0F16F-8" value="" style="rounded=0;whiteSpace=wrap;html=1;fillColor=#dae8fc;strokeColor=#6c8ebf;" vertex="1" parent="1">
          <mxGeometry x="305" y="400" width="50" height="30" as="geometry" />
        </mxCell>
        <mxCell id="CSZjJ05-GNj9Toq0F16F-9" value="body" style="text;html=1;align=center;verticalAlign=middle;resizable=0;points=[];autosize=1;strokeColor=none;fillColor=none;" vertex="1" parent="1">
          <mxGeometry x="355" y="400" width="50" height="30" as="geometry" />
        </mxCell>
        <mxCell id="3rT_hJ8IkUH9OqSrIQY7-7" value="CLIENT" style="shape=umlLifeline;perimeter=lifelinePerimeter;whiteSpace=wrap;html=1;container=1;dropTarget=0;collapsible=0;recursiveResize=0;outlineConnect=0;portConstraint=eastwest;newEdgeStyle={&quot;curved&quot;:0,&quot;rounded&quot;:0};fillColor=#dae8fc;strokeColor=#6c8ebf;" vertex="1" parent="1">
          <mxGeometry x="80" y="560" width="100" height="300" as="geometry" />
        </mxCell>
        <mxCell id="3rT_hJ8IkUH9OqSrIQY7-8" value="TPM" style="shape=umlLifeline;perimeter=lifelinePerimeter;whiteSpace=wrap;html=1;container=1;dropTarget=0;collapsible=0;recursiveResize=0;outlineConnect=0;portConstraint=eastwest;newEdgeStyle={&quot;curved&quot;:0,&quot;rounded&quot;:0};fillColor=#dae8fc;strokeColor=#6c8ebf;" vertex="1" parent="1">
          <mxGeometry x="320" y="560" width="100" height="300" as="geometry" />
        </mxCell>
        <mxCell id="3rT_hJ8IkUH9OqSrIQY7-15" value="" style="html=1;points=[[0,0,0,0,5],[0,1,0,0,-5],[1,0,0,0,5],[1,1,0,0,-5]];perimeter=orthogonalPerimeter;outlineConnect=0;targetShapes=umlLifeline;portConstraint=eastwest;newEdgeStyle={&quot;curved&quot;:0,&quot;rounded&quot;:0};" vertex="1" parent="3rT_hJ8IkUH9OqSrIQY7-8">
          <mxGeometry x="50" y="60" width="10" height="80" as="geometry" />
        </mxCell>
        <mxCell id="3rT_hJ8IkUH9OqSrIQY7-18" value="" style="html=1;points=[[0,0,0,0,5],[0,1,0,0,-5],[1,0,0,0,5],[1,1,0,0,-5]];perimeter=orthogonalPerimeter;outlineConnect=0;targetShapes=umlLifeline;portConstraint=eastwest;newEdgeStyle={&quot;curved&quot;:0,&quot;rounded&quot;:0};" vertex="1" parent="3rT_hJ8IkUH9OqSrIQY7-8">
          <mxGeometry x="50" y="190" width="10" height="80" as="geometry" />
        </mxCell>
        <mxCell id="3rT_hJ8IkUH9OqSrIQY7-16" value="TPM2_HASH CMD&lt;div&gt;(hash alg, payload_to_sign)&lt;/div&gt;" style="html=1;verticalAlign=bottom;endArrow=block;curved=0;rounded=0;entryX=0;entryY=0;entryDx=0;entryDy=5;" edge="1" target="3rT_hJ8IkUH9OqSrIQY7-15" parent="1" source="3rT_hJ8IkUH9OqSrIQY7-7">
          <mxGeometry relative="1" as="geometry">
            <mxPoint x="300" y="625" as="sourcePoint" />
          </mxGeometry>
        </mxCell>
        <mxCell id="3rT_hJ8IkUH9OqSrIQY7-17" value="TPM2_HASH RSP&lt;div&gt;(&lt;font style=&quot;color: rgb(51, 51, 255);&quot;&gt;digest&lt;/font&gt;, &lt;font style=&quot;color: rgb(51, 51, 255);&quot;&gt;ticket&lt;/font&gt;)&lt;/div&gt;" style="html=1;verticalAlign=bottom;endArrow=open;dashed=1;endSize=8;curved=0;rounded=0;exitX=0;exitY=1;exitDx=0;exitDy=-5;" edge="1" source="3rT_hJ8IkUH9OqSrIQY7-15" parent="1" target="3rT_hJ8IkUH9OqSrIQY7-7">
          <mxGeometry relative="1" as="geometry">
            <mxPoint x="300" y="695" as="targetPoint" />
          </mxGeometry>
        </mxCell>
        <mxCell id="3rT_hJ8IkUH9OqSrIQY7-19" value="TPM2_SIGN CMD&lt;div&gt;(key handle, &lt;font style=&quot;color: rgb(51, 51, 255);&quot;&gt;digest&lt;/font&gt;, &lt;font style=&quot;color: rgb(51, 51, 255);&quot;&gt;ticket&lt;/font&gt;)&lt;/div&gt;" style="html=1;verticalAlign=bottom;endArrow=block;curved=0;rounded=0;entryX=0;entryY=0;entryDx=0;entryDy=5;" edge="1" target="3rT_hJ8IkUH9OqSrIQY7-18" parent="1" source="3rT_hJ8IkUH9OqSrIQY7-7">
          <mxGeometry relative="1" as="geometry">
            <mxPoint x="300" y="755" as="sourcePoint" />
          </mxGeometry>
        </mxCell>
        <mxCell id="3rT_hJ8IkUH9OqSrIQY7-20" value="TPM2_SIGN RSP&lt;div&gt;(signature)&lt;/div&gt;" style="html=1;verticalAlign=bottom;endArrow=open;dashed=1;endSize=8;curved=0;rounded=0;exitX=0;exitY=1;exitDx=0;exitDy=-5;" edge="1" source="3rT_hJ8IkUH9OqSrIQY7-18" parent="1" target="3rT_hJ8IkUH9OqSrIQY7-7">
          <mxGeometry x="-0.0021" relative="1" as="geometry">
            <mxPoint x="300" y="825" as="targetPoint" />
            <mxPoint as="offset" />
          </mxGeometry>
        </mxCell>
      </root>
    </mxGraphModel>
  </diagram>
</mxfile>
